# xmcd
#
# Track frame offsets: 
#        150
#        14870
#        28801
#        41928
#        58488
#        72071
#        87349
#        100548
#        110478
#        125506
#        137619
#
# Disc length: 1947 seconds
#
# Revision: 0
# Processed by: cddbd v1.5.2PL0 Copyright (c) Steve Scherf et al.
# Submitted via: ExactAudioCopy v1.0b1
#
DISCID=a007990b
DTITLE=Romain Lateltin - Le râleur made in France
DYEAR=2010
DGENRE=Blues
TTITLE0=Le râleur made in France
TTITLE1=Le personnage central
TTITLE2=Chaleur c'est bonheur
TTITLE3=Je dis oui comme je dis non
TTITLE4=Le misogyne
TTITLE5=Le clown de ma jeunesse
TTITLE6=C'est tout ce que je vaux
TTITLE7=Le formatage a échoué
TTITLE8=Changer de scénario
TTITLE9=La plenitude acte 1
TTITLE10=Salutations distinguées
EXTD=
EXTT0=
EXTT1=
EXTT2=
EXTT3=
EXTT4=
EXTT5=
EXTT6=
EXTT7=
EXTT8=
EXTT9=
EXTT10=
PLAYORDER=
